{"title":"Jupiter.Ascending.2015.HDTC.XviD.AC3-FANTA","uid":11773909,"size":1976745661,"categoryP":"video","categoryS":"movies","magnet":"?xt=urn:btih:a1f17aaf3482062947993f152c255c2498f0cf92&amp;dn=Jupiter.Ascending.2015.HDTC.XviD.AC3-FANTA&amp;tr=udp%3A%2F%2Ftracker.openbittorrent.com%3A80&amp;tr=udp%3A%2F%2Fopen.demonii.com%3A1337&amp;tr=udp%3A%2F%2Ftracker.coppersurfer.tk%3A6969&amp;tr=udp%3A%2F%2Fexodus.desync.com%3A6969","seeders":34,"leechers":4,"uploader":"xxxlavalxxx","files":8,"time":1427190512,"description":"[img]http://i.imgur.com/IagmXWr.jpg[/img]\n &lt;a href=&quot;\nhttp://www.imdb.com/title/tt1617661/&quot; rel=&quot;nofollow&quot; target=&quot;_NEW&quot;&gt;\nhttp://www.imdb.com/title/tt1617661/&lt;/a&gt;\n\nIn a bright and colorful future, a young destitute caretaker gets targeted by the ruthless son of a powerful family who lives on a planet in need of a new heir, so she travels with a genetically engineered warrior to the planet in order to stop his tyrant reign.\n\nDirectors: Andy Wachowski (as The Wachowskis) , Lana Wachowski (as The Wachowskis)\nWriters: Andy Wachowski, Lana Wachowski\nStars: Channing Tatum, Mila Kunis, Eddie Redmayne\nGenres: Action | Fantasy | Sci-Fi\nCountry: USA\nLanguage: English\n\nFormat                                   : AVI\nFormat/Info                              : Audio Video Interleave\nFormat profile                           : OpenDML\nFormat settings                          : rec\nFile size                                : 1.82 GiB\nDuration                                 : 2h 5mn\nOverall bit rate                         : 2 086 Kbps\nWriting application                      : AVI-Mux GUI 1.17.8.3, Feb 16 201019:42:50\n\nVideo\nID                                       : 0\nFormat                                   : MPEG-4 Visual\nFormat profile                           : Advanced Simple@L5\nFormat settings, BVOP                    : 2\nFormat settings, QPel                    : No\nFormat settings, GMC                     : No warppoints\nFormat settings, Matrix                  : Default (H.263)\nMuxing mode                              : Packed bitstream\nCodec ID                                 : XVID\nCodec ID/Hint                            : XviD\nDuration                                 : 2h 5mn\nBit rate                                 : 1 888 Kbps\nWidth                                    : 728 pixels\nHeight                                   : 280 pixels\nDisplay aspect ratio                     : 2.600\nFrame rate                               : 23.976 fps\nColor space                              : YUV\nChroma subsampling                       : 4:2:0\nBit depth                                : 8 bits\nScan type                                : Progressive\nCompression mode                         : Lossy\nBits/(Pixel*Frame)                       : 0.386\nStream size                              : 1.65 GiB (91%)\nWriting library                          : XviD 64\n\nAudio\nID                                       : 1\nFormat                                   : AC-3\nFormat/Info                              : Audio Coding 3\nMode extension                           : CM (complete main)\nFormat settings, Endianness              : Big\nCodec ID                                 : 2000\nDuration                                 : 2h 5mn\nBit rate mode                            : Constant\nBit rate                                 : 192 Kbps\nChannel(s)                               : 2 channels\nChannel positions                        : Front: L R\nSampling rate                            : 48.0 KHz\nBit depth                                : 16 bits\nCompression mode                         : Lossy\nStream size                              : 172 MiB (9%)\nAlignment                                : Aligned on interleaves\nInterleave, duration                     : 64 ms (1.53 video frames)\nInterleave, preload duration             : 192 ms\nTitle                                    : Jupiter Ascending (2015)\n &lt;a href=&quot;\nhttp://i.imgur.com/IHtsxEM.jpg&quot; rel=&quot;nofollow&quot; target=&quot;_NEW&quot;&gt;\nhttp://i.imgur.com/IHtsxEM.jpg&lt;/a&gt; &lt;a href=&quot;\nhttp://i.imgur.com/bBKMXvG.jpg&quot; rel=&quot;nofollow&quot; target=&quot;_NEW&quot;&gt;\nhttp://i.imgur.com/bBKMXvG.jpg&lt;/a&gt; &lt;a href=&quot;\nhttp://i.imgur.com/0w7AYXV.jpg&quot; rel=&quot;nofollow&quot; target=&quot;_NEW&quot;&gt;\nhttp://i.imgur.com/0w7AYXV.jpg&lt;/a&gt; &lt;a href=&quot;\nhttp://i.imgur.com/EVWxMCN.jpg&quot; rel=&quot;nofollow&quot; target=&quot;_NEW&quot;&gt;\nhttp://i.imgur.com/EVWxMCN.jpg&lt;/a&gt; &lt;a href=&quot;\nhttp://i.imgur.com/QG3tUYo.jpg&quot; rel=&quot;nofollow&quot; target=&quot;_NEW&quot;&gt;\nhttp://i.imgur.com/QG3tUYo.jpg&lt;/a&gt; &lt;a href=&quot;\nhttp://i.imgur.com/domyNXP.jpg&quot; rel=&quot;nofollow&quot; target=&quot;_NEW&quot;&gt;\nhttp://i.imgur.com/domyNXP.jpg&lt;/a&gt;","torrent":{"xt":"urn:btih:a1f17aaf3482062947993f152c255c2498f0cf92","amp;dn":"Jupiter.Ascending.2015.HDTC.XviD.AC3-FANTA","amp;tr":["udp%3A%2F%2Ftracker.openbittorrent.com%3A80","udp%3A%2F%2Fopen.demonii.com%3A1337","udp%3A%2F%2Ftracker.coppersurfer.tk%3A6969","udp%3A%2F%2Fexodus.desync.com%3A6969"],"infoHash":"a1f17aaf3482062947993f152c255c2498f0cf92","infoHashBuffer":{"type":"Buffer","data":[161,241,122,175,52,130,6,41,71,153,63,21,44,37,92,36,152,240,207,146]},"announce":[],"urlList":[]}}